<?xml version="1.0" encoding="UTF-8" standalone="no"?>
<!DOCTYPE svg PUBLIC "-//W3C//DTD SVG 1.1//EN" "http://www.w3.org/Graphics/SVG/1.1/DTD/svg11.dtd">
<svg width="100%" height="100%" viewBox="0 0 3775 3775" version="1.1" xmlns="http://www.w3.org/2000/svg" xmlns:xlink="http://www.w3.org/1999/xlink" xml:space="preserve" xmlns:serif="http://www.serif.com/" style="fill-rule:evenodd;clip-rule:evenodd;stroke-linejoin:round;stroke-miterlimit:2;">
    <circle cx="1887.5" cy="1887.5" r="1887.5" style="fill:white;"/>
    <path d="M279.71,898.648C612.136,359.602 1208.05,0 1887.28,0C2928.9,0 3774.56,845.664 3774.56,1887.28C3774.56,2928.9 2928.9,3774.56 1887.28,3774.56C845.66,3774.56 0,2928.9 0,1887.28C0,1598.98 64.783,1325.7 180.573,1081.2L733.662,1081.2C820.154,1081.2 892.597,1141.35 911.442,1222.1C917.026,1246.43 938.683,1263.68 963.651,1263.68C987.152,1263.75 1015.74,1263.75 1040.55,1263.75C1056.4,1263.75 1071.43,1256.74 1081.62,1244.61C1091.81,1232.48 1096.12,1216.46 1093.38,1200.85C1063.56,1029.18 913.856,898.644 733.662,898.644L279.71,898.644L279.71,898.648ZM871.075,1830.29L903.367,2868.9C905.655,2942.47 965.952,3000.92 1039.55,3000.92L1195.54,3000.92C1269.14,3000.92 1329.43,2942.47 1331.72,2868.9L1364.01,1830.29C1364.51,1814.3 1358.51,1798.79 1347.37,1787.3C1336.23,1775.8 1320.91,1769.32 1304.9,1769.32L930.185,1769.32C914.182,1769.32 898.862,1775.8 887.723,1787.3C876.584,1798.79 870.578,1814.3 871.075,1830.29ZM1640.81,1830.29L1673.11,2868.9C1675.39,2942.47 1735.69,3000.92 1809.29,3000.92L1965.28,3000.92C2038.88,3000.92 2099.17,2942.47 2101.46,2868.9L2133.75,1830.29C2134.25,1814.3 2128.24,1798.79 2117.11,1787.3C2105.97,1775.8 2090.65,1769.32 2074.64,1769.32L1699.92,1769.32C1683.92,1769.32 1668.6,1775.8 1657.46,1787.3C1646.32,1798.79 1640.32,1814.3 1640.81,1830.29ZM2410.55,1830.29L2442.85,2868.9C2445.13,2942.47 2505.43,3000.92 2579.03,3000.92L2735.01,3000.92C2808.62,3000.92 2868.91,2942.47 2871.2,2868.9L2903.49,1830.29C2903.99,1814.3 2897.98,1798.79 2886.85,1787.3C2875.71,1775.8 2860.39,1769.32 2844.38,1769.32L2469.66,1769.32C2453.66,1769.32 2438.34,1775.8 2427.2,1787.3C2416.06,1798.79 2410.06,1814.3 2410.55,1830.29ZM3342.83,1263.76C3358.68,1263.76 3373.71,1256.75 3383.9,1244.61C3394.09,1232.48 3398.39,1216.46 3395.66,1200.85C3365.84,1029.19 3216.13,898.648 3035.94,898.648C2855.74,898.648 2706.04,1029.19 2676.23,1200.86C2673.49,1216.46 2677.79,1232.48 2687.98,1244.61C2698.17,1256.74 2713.2,1263.75 2729.05,1263.75C2753.86,1263.76 2782.45,1263.76 2805.95,1263.76C2830.95,1263.75 2852.63,1246.48 2858.22,1222.12C2877,1141.35 2949.45,1081.2 3035.94,1081.2C3122.43,1081.2 3194.87,1141.35 3213.72,1222.1C3219.3,1246.44 3240.96,1263.69 3265.93,1263.69C3289.43,1263.76 3318.01,1263.76 3342.83,1263.76ZM3309.68,1383.52C3309.68,1383.52 3157.72,1702.64 3157.72,1839.4C3157.72,1923.27 3225.81,1991.37 3309.68,1991.37C3393.55,1991.37 3461.64,1923.27 3461.64,1839.4C3461.64,1702.64 3309.68,1383.52 3309.68,1383.52ZM1197.61,1263.76C1222.43,1263.76 1251.01,1263.76 1274.51,1263.69C1299.48,1263.69 1321.14,1246.44 1326.72,1222.1C1345.57,1141.35 1418.01,1081.2 1504.5,1081.2C1591,1081.2 1663.44,1141.35 1682.22,1222.12C1687.81,1246.48 1709.49,1263.75 1734.49,1263.76C1757.99,1263.76 1786.58,1263.76 1811.39,1263.75C1827.24,1263.75 1842.27,1256.74 1852.46,1244.61C1862.65,1232.48 1866.95,1216.46 1864.21,1200.86C1834.4,1029.19 1684.7,898.648 1504.5,898.648C1324.31,898.648 1174.6,1029.19 1144.79,1200.85C1142.05,1216.46 1146.35,1232.48 1156.54,1244.61C1166.73,1256.75 1181.77,1263.76 1197.61,1263.76ZM2576.96,1263.76C2592.81,1263.76 2607.84,1256.75 2618.03,1244.61C2628.22,1232.48 2632.53,1216.46 2629.79,1200.85C2599.97,1029.19 2450.26,898.648 2270.07,898.648C2089.88,898.648 1940.17,1029.19 1910.36,1200.86C1907.62,1216.46 1911.92,1232.48 1922.11,1244.61C1932.3,1256.74 1947.34,1263.75 1963.18,1263.75C1987.99,1263.76 2016.58,1263.76 2040.08,1263.76C2065.08,1263.75 2086.76,1246.48 2092.35,1222.12C2111.14,1141.35 2183.58,1081.2 2270.07,1081.2C2356.56,1081.2 2429.01,1141.35 2447.85,1222.1C2453.43,1246.44 2475.09,1263.69 2500.06,1263.69C2523.56,1263.76 2552.15,1263.76 2576.96,1263.76Z" style="fill:rgb(1,24,74);"/>
    <path d="M1448.19,1409.32C1448.19,1352.69 1402.22,1306.72 1345.59,1306.72L889.505,1306.72C832.879,1306.72 786.905,1352.69 786.905,1409.32L786.905,1614.52C786.905,1671.15 832.879,1717.12 889.505,1717.12L1345.59,1717.12C1402.22,1717.12 1448.19,1671.15 1448.19,1614.52L1448.19,1409.32Z" style="fill:rgb(28,137,211);"/>
    <path d="M2218.1,1409.32C2218.1,1352.69 2172.13,1306.72 2115.5,1306.72L1659.41,1306.72C1602.79,1306.72 1556.82,1352.69 1556.82,1409.32L1556.82,1614.52C1556.82,1671.15 1602.79,1717.12 1659.41,1717.12L2115.5,1717.12C2172.13,1717.12 2218.1,1671.15 2218.1,1614.52L2218.1,1409.32Z" style="fill:rgb(28,137,211);"/>
    <path d="M2988,1409.32C2988,1352.69 2942.03,1306.72 2885.4,1306.72L2429.32,1306.72C2372.69,1306.72 2326.72,1352.69 2326.72,1409.32L2326.72,1614.52C2326.72,1671.15 2372.69,1717.12 2429.32,1717.12L2885.4,1717.12C2942.03,1717.12 2988,1671.15 2988,1614.52L2988,1409.32Z" style="fill:rgb(28,137,211);"/>
</svg>
